<svg width="300" height="300" viewBox="0 0 300 300" fill="none" xmlns="http://www.w3.org/2000/svg">
<g clip-path="url(#clip0_6_7)">
<path opacity="0.8" fill-rule="evenodd" clip-rule="evenodd" d="M95.1185 2.6914e-05L293.1 0.145153L199.343 195.92H94.9777C69.7694 195.901 45.601 185.562 27.7892 167.177C9.97741 148.792 -0.0186467 123.868 2.61139e-05 97.8876C0.0186989 71.907 10.0506 46.9981 27.8888 28.6406C45.7269 10.2831 69.9102 -0.019218 95.1185 2.6914e-05Z" fill="#00C9A7"/>
<path opacity="0.8" fill-rule="evenodd" clip-rule="evenodd" d="M204.905 299.927H6.8998L100.774 104.007H205.116C230.325 104.007 254.5 114.328 272.325 132.699C290.15 151.07 300.164 175.987 300.164 201.967C300.164 227.948 290.15 252.864 272.325 271.236C254.5 289.607 230.325 299.927 205.116 299.927H204.905Z" fill="#06005C"/>
<path fill-rule="evenodd" clip-rule="evenodd" d="M205.022 104.007C217.011 104.013 228.891 106.352 240.038 110.901L199.343 195.92H94.9777C82.9871 195.936 71.1034 193.596 59.9625 189.027L100.681 104.007H205.022Z" fill="#06005C"/>
</g>
<defs>
<clipPath id="clip0_6_7">
<rect width="300" height="300" fill="white"/>
</clipPath>
</defs>
</svg>
